PathFileType  4	(X/Y/Z) C:\Users\antoi\Documents\MyRepositories\mobilecap\ResultsAnalysis
DataRate	CameraRate	NumFrames	NumMarkers	Units	OrigDataRate	OrigDataStartFrame	OrigNumFrames
100.0	100.0	4	51	mm	100.0	826	1321
Frame#	Time	r_knee			r_shank_antsup			r_ankle			r_calc			r_5meta			r_toe			L_knee			L_shank_antsup			L_ankle			L_calc			L_5meta			L_toe			r_sh2			r_sh3			r_sh4			L_sh2			L_sh3			r_thigh1			r_thigh2			r_thigh3			r_thigh4			r_thigh5			L_thigh1			L_thigh2			L_thigh3			L_thigh4			r.ASIS			r.PSIS			L.ASIS			L.PSIS			C7			R_Shoulder			L_Shoulder			R_Sternum			L_Sternum			R_humerus			R_elbow_med			R_elbow_lat			R_forearm			R_wrist_radius			R_wrist_ulna			L_humerus			L_elbow_med			L_elbow_lat			L_forearm			L_wrist_radius			L_wrist_ulna			R_HJC			L_HJC			R_HJC_reg			L_HJC_reg			
		X1	Y1	Z1	X2	Y2	Z2	X3	Y3	Z3	X4	Y4	Z4	X5	Y5	Z5	X6	Y6	Z6	X7	Y7	Z7	X8	Y8	Z8	X9	Y9	Z9	X10	Y10	Z10	X11	Y11	Z11	X12	Y12	Z12	X13	Y13	Z13	X14	Y14	Z14	X15	Y15	Z15	X16	Y16	Z16	X17	Y17	Z17	X18	Y18	Z18	X19	Y19	Z19	X20	Y20	Z20	X21	Y21	Z21	X22	Y22	Z22	X23	Y23	Z23	X24	Y24	Z24	X25	Y25	Z25	X26	Y26	Z26	X27	Y27	Z27	X28	Y28	Z28	X29	Y29	Z29	X30	Y30	Z30	X31	Y31	Z31	X32	Y32	Z32	X33	Y33	Z33	X34	Y34	Z34	X35	Y35	Z35	X36	Y36	Z36	X37	Y37	Z37	X38	Y38	Z38	X39	Y39	Z39	X40	Y40	Z40	X41	Y41	Z41	X42	Y42	Z42	X43	Y43	Z43	X44	Y44	Z44	X45	Y45	Z45	X46	Y46	Z46	X47	Y47	Z47	X48	Y48	Z48	X49	Y49	Z49	X50	Y50	Z50	X51	Y51	Z51	

826	8.25000000	-187.90661	448.67397	-412.46894	-129.96123	393.26172	-414.56058	-252.29232	84.12396	-429.04688	-306.26817	54.40013	-475.34910	-145.90815	45.31069	-402.30166	-108.57598	68.70294	-453.39723	-173.57767	448.09337	-799.55451	-118.35091	365.57605	-781.34501	-239.20948	90.62018	-766.37195	-296.02263	52.23985	-717.10415	-139.63571	45.53089	-797.84995	-87.73199	65.28220	-746.35438	-161.74213	284.99361	-410.10857	-198.83573	413.77876	-387.95277	-236.91421	302.71938	-386.27908	-193.27850	391.25839	-823.61334	-219.04914	271.51035	-823.30711	-426.06121	527.46752	-398.45510	-313.22970	516.27372	-399.92786	-298.42796	447.92355	-394.81281	-437.96475	412.53043	-406.89962	-321.22453	406.21279	-420.27107	-445.03448	525.61465	-813.78831	-307.47144	515.84404	-806.76974	-459.19854	412.94224	-814.66293	-322.10457	404.00594	-790.80479	-469.76549	584.06429	-497.98541	-674.33312	591.11171	-575.19297	-470.78824	579.85779	-716.18123	-673.64500	585.63422	-655.22478	-462.53007	1008.81468	-613.29817	-406.66141	980.43310	-479.49522	-405.11877	972.54646	-744.55964	-348.98557	933.09578	-595.35916	-355.28126	926.89771	-624.78982	-339.57344	917.73437	-417.16089	-248.59066	720.77118	-394.82298	-225.25534	762.77557	-345.46549	-142.50528	806.82009	-364.87731	-11.75932	828.05663	-417.45072	-1.43232	793.56841	-404.00971	-346.64115	906.97252	-813.73602	-226.97563	719.99543	-804.95216	-213.01982	760.60781	-851.69066	-108.23815	788.19127	-834.29827	8.30170	803.16565	-785.31685	14.65713	764.71169	-794.30858	-540.53202	488.92475	-502.15065	-537.99588	485.95843	-709.62216	-534.28583	514.79849	-523.53022	-533.05225	504.96262	-667.22572	
827	8.26000000	-187.61659	448.50080	-412.84040	-129.76679	393.13205	-414.70563	-252.42287	84.06726	-429.03497	-306.35479	54.32140	-475.31486	-146.00035	45.45170	-402.22993	-108.77915	68.95222	-453.36664	-173.47960	448.06836	-799.39339	-118.29108	365.46700	-781.16982	-239.35206	90.64904	-766.56194	-296.11441	52.01048	-717.03779	-139.79858	45.70040	-797.86217	-87.84892	65.52254	-746.43770	-161.60817	284.82058	-410.33039	-198.49824	413.85620	-388.02703	-236.74904	302.76321	-386.33303	-193.21192	391.22524	-823.59525	-219.01703	271.39739	-823.18179	-425.63849	527.56052	-398.34069	-312.70836	516.47659	-399.62261	-298.13337	447.82011	-394.85551	-437.68130	412.55705	-406.68428	-320.92479	406.25929	-420.32147	-444.80843	525.87749	-813.51403	-307.30575	515.97435	-806.68933	-459.14240	413.34351	-814.86117	-322.09234	404.14254	-790.80760	-467.66114	583.32945	-496.62041	-671.75511	593.35022	-574.79489	-468.59605	578.77093	-716.15391	-671.28159	587.86319	-654.93803	-453.44665	1007.09773	-612.59575	-397.45140	977.86382	-478.88126	-395.86606	969.85060	-744.10234	-340.43244	930.38391	-594.67832	-346.76675	924.11750	-624.14098	-331.35004	914.54536	-415.99859	-242.30920	717.67742	-392.23427	-218.67180	759.63988	-343.25179	-135.62433	803.09052	-363.10491	-4.88927	824.00762	-416.04371	5.38736	789.51818	-402.63479	-338.25265	903.94377	-813.87426	-219.29914	716.61590	-805.85233	-205.63242	756.96096	-852.26804	-100.87833	784.86319	-835.45555	15.68611	800.37572	-786.63817	22.18444	761.89391	-795.55884	-539.84734	489.26400	-501.45554	-537.11462	485.95872	-708.92137	-532.99707	514.47722	-522.26167	-532.14478	504.57697	-666.84424	
828	8.27000000	-187.25024	448.21474	-413.17252	-129.43354	392.96851	-414.77780	-252.52171	84.03807	-428.98927	-306.46267	54.16427	-475.28576	-146.10317	45.57112	-402.20428	-108.97750	69.12914	-453.35891	-173.33434	448.05321	-799.36009	-118.21726	365.31999	-781.05695	-239.52815	90.58249	-766.47926	-296.18856	51.78279	-716.95749	-139.94200	45.83697	-797.83179	-87.92225	65.80998	-746.49570	-161.45884	284.62490	-410.41610	-198.20716	413.75251	-388.10328	-236.57195	302.68488	-386.38622	-193.13163	391.14370	-823.60113	-218.94190	271.25208	-823.11976	-425.08280	527.59538	-398.29595	-312.22835	516.52145	-399.31648	-297.77836	447.67552	-394.82565	-437.42616	412.34958	-406.61723	-320.58751	406.28599	-420.22792	-444.51566	526.13461	-813.49332	-307.09245	516.00097	-806.57884	-459.05751	413.70506	-814.84478	-322.02210	404.21134	-790.70532	-464.37140	580.97114	-498.23674	-668.82188	595.84634	-574.54396	-466.18394	577.50571	-715.96716	-668.55704	590.27192	-654.64631	-444.08794	1005.25616	-611.88407	-387.80153	975.21604	-478.01512	-386.21701	967.06233	-743.45714	-331.42581	927.53448	-593.83584	-337.92588	921.25724	-623.43413	-322.61298	911.32443	-414.95962	-235.09020	714.24462	-390.20414	-211.20366	756.13205	-341.71142	-128.13354	799.40802	-361.29831	2.57328	819.98454	-414.53844	12.81316	785.49250	-401.07561	-329.38527	900.91786	-813.75561	-211.03509	713.21802	-806.68141	-197.64892	753.50022	-853.02003	-92.83788	781.63649	-836.71262	23.68424	797.70208	-788.01544	30.30082	759.22296	-796.84753	-538.58092	488.53485	-502.19647	-536.75165	486.04681	-709.67411	-531.55698	514.78226	-523.48013	-531.08053	504.80644	-666.86309	
829	8.28000000	-186.77671	447.89802	-413.31998	-128.95328	392.74173	-414.67359	-252.63877	83.95442	-428.99017	-306.61881	53.95282	-475.25569	-146.23144	45.60553	-402.23436	-109.11522	69.26859	-453.32884	-173.19593	447.90371	-799.25863	-118.13142	365.11450	-781.05539	-239.75278	90.45630	-766.24866	-296.30470	51.56188	-716.94809	-140.08781	45.96765	-797.82209	-88.02888	66.04379	-746.45075	-161.18421	284.41794	-410.37161	-197.86164	413.39570	-388.09642	-236.39828	302.45847	-386.43610	-193.03424	391.01072	-823.55213	-218.90859	271.08463	-823.04581	-424.37124	527.35765	-398.08003	-311.74774	516.37298	-399.03065	-297.31766	447.48261	-394.63696	-437.04824	412.14144	-406.57455	-320.30481	406.31851	-420.00483	-444.09997	526.35691	-813.71640	-306.78403	515.93777	-806.50168	-458.99530	413.92183	-814.51520	-321.89572	404.18630	-790.45477	-460.89445	577.47894	-501.71015	-665.46977	598.50246	-574.29621	-463.44447	576.09135	-715.77085	-665.42017	592.84505	-654.19967	-434.31337	1003.14497	-611.24566	-377.86740	972.35410	-477.32706	-376.26013	964.13506	-742.71762	-322.04727	924.45821	-592.98161	-328.78571	918.21724	-622.67766	-313.42722	908.14374	-414.08472	-226.55911	710.06535	-388.95905	-202.95256	752.23650	-340.93440	-120.03308	795.82402	-359.51592	10.62459	816.13858	-412.76363	20.84990	781.65858	-399.24588	-320.03076	897.92510	-813.38088	-202.20033	709.90766	-807.32365	-189.04268	750.32699	-854.03506	-84.24591	778.61876	-837.89283	32.32072	795.14197	-789.36681	38.96520	756.66700	-797.89959	-537.10205	487.04844	-503.83876	-536.69697	486.24259	-711.33809	-530.14221	515.38916	-526.29374	-530.05153	505.41155	-667.23814	
